<svg xmlns="http://www.w3.org/2000/svg" aria-hidden="true" style="position:absolute;width:0;height:0;overflow:hidden">
  <defs>
    <symbol id="icon-lets-ok-4" viewBox="0 0 32 32">
      <path fill="#00b068" d="M16 0a15.997 15.997 0 0 1 16 16 16.003 16.003 0 0 1-16 16A16.003 16.003 0 0 1 0 16 16.003 16.003 0 0 1 16 0zm-1.993 19.157L10.453 15.6a1.362 1.362 0 0 0-.97-.401 1.37 1.37 0 0 0-1.372 1.371c0 .364.145.713.402.97l4.526 4.526a1.357 1.357 0 0 0 .971.404 1.38 1.38 0 0 0 .971-.404l9.371-9.374a1.366 1.366 0 0 0 .41-.972 1.368 1.368 0 0 0-.848-1.275 1.384 1.384 0 0 0-1.055.003c-.167.07-.318.173-.445.302l-8.405 8.405z" style="fill:var(--color1, #00b068)"/>
    </symbol>
  <symbol id="icon-FAQ" viewBox="0 0 32 32">
<path d="M9 11c0.278 0 0.555 0.116 0.753 0.341l6.247 7.14 6.247-7.14c0.364-0.416 0.995-0.458 1.411-0.094s0.458 0.995 0.094 1.411l-7 8c-0.19 0.217-0.464 0.341-0.753 0.341s-0.563-0.125-0.753-0.341l-7-8c-0.364-0.416-0.322-1.047 0.094-1.411 0.19-0.166 0.424-0.247 0.658-0.247z"></path>
</symbol>
    <symbol id="icon-lets-address-3" viewBox="0 0 32 32">
      <path fill="none" stroke="#00b068" stroke-linecap="round" stroke-linejoin="round" stroke-width="1.524" d="M27.429 12.952C27.429 23.835 16 30.095 16 30.095S4.571 23.835 4.571 12.952a11.428 11.428 0 1 1 22.856 0v0z" style="stroke:var(--color1, #00b068)"/>
    </symbol>
    <symbol id="icon-lets-email-2" viewBox="0 0 32 32">
      <path fill="none" stroke="#00b068" stroke-linecap="round" stroke-linejoin="round" stroke-width="1.454" d="M30.182 8.364v15.273a3.272 3.272 0 0 1-3.273 3.273H5.091a3.272 3.272 0 0 1-3.273-3.273V8.364m28.364 0a3.272 3.272 0 0 0-3.273-3.273H5.091a3.272 3.272 0 0 0-3.273 3.273m28.364 0v.353a3.277 3.277 0 0 1-1.556 2.787l-10.909 6.713a3.27 3.27 0 0 1-3.432 0L3.376 11.506A3.266 3.266 0 0 1 1.82 8.719v-.355" style="stroke:var(--color1, #00b068)"/>
    </symbol>
    <symbol id="icon-lets-tel-1" viewBox="0 0 32 32">
      <path fill="none" stroke="#00b068" stroke-linecap="round" stroke-linejoin="round" stroke-width="1.454" d="M1.818 8.364c0 12.049 9.769 21.818 21.818 21.818h3.273a3.272 3.272 0 0 0 3.273-3.273v-1.996c0-.751-.511-1.405-1.239-1.587l-6.433-1.609c-.64-.16-1.312.08-1.706.607l-1.411 1.881c-.41.547-1.119.788-1.76.553a17.502 17.502 0 0 1-10.39-10.39c-.236-.641.006-1.35.553-1.76l1.881-1.411a1.634 1.634 0 0 0 .607-1.706L8.675 3.058a1.633 1.633 0 0 0-1.587-1.24H5.092a3.272 3.272 0 0 0-3.273 3.273v3.273z" style="stroke:var(--color1, #00b068)"/>
    </symbol>
    <symbol id="icon-lets-mob" viewBox="0 0 32 32">
      <path d="M.486 26.221v-1.939h31.03v1.939H.486zm0-9.251v-1.939h31.03v1.939H.486zm0-9.251V5.78h31.03v1.939H.486z"/>
    </symbol>
    <symbol id="icon-benefits-icon-3" viewBox="0 0 32 32">
      <path fill="#bcdfd1" d="M5.333 0h21.333a5.333 5.333 0 0 1 5.333 5.333v21.333a5.333 5.333 0 0 1-5.333 5.333H5.333A5.333 5.333 0 0 1 0 26.666V5.333A5.333 5.333 0 0 1 5.333 0z" style="fill:var(--color2, #bcdfd1)"/>
      <path fill="none" stroke="#00b068" stroke-linecap="round" stroke-linejoin="round" stroke-width="1.333" d="M20.108 9.333h-8.217a.558.558 0 0 0-.558.558 6.7 6.7 0 0 0 1.962 4.737l.813.813c.081.081.121.121.15.16a.668.668 0 0 1 0 .797c-.029.039-.069.079-.15.16l-.813.813a6.7 6.7 0 0 0-1.962 4.737c0 .308.25.558.558.558h8.217c.308 0 .558-.25.558-.558a6.7 6.7 0 0 0-1.962-4.737l-.813-.813a1.653 1.653 0 0 1-.15-.16.668.668 0 0 1 0-.797c.029-.039.069-.079.15-.16l.813-.813a6.7 6.7 0 0 0 1.962-4.737.558.558 0 0 0-.558-.558z" style="stroke:var(--color1, #00b068)"/>
    </symbol>
    <symbol id="icon-benefits-icon-2" viewBox="0 0 32 32">
      <path fill="#bcdfd1" d="M5.333 0h21.333a5.333 5.333 0 0 1 5.333 5.333v21.333a5.333 5.333 0 0 1-5.333 5.333H5.333A5.333 5.333 0 0 1 0 26.666V5.333A5.333 5.333 0 0 1 5.333 0z" style="fill:var(--color2, #bcdfd1)"/>
      <path fill="none" stroke="#00b068" stroke-linecap="round" stroke-linejoin="round" stroke-width="1.333" d="M16.519 18 14 15.482M9.333 22.666c1.333 0 3.072.228 3.983-.683a2.334 2.334 0 0 0-3.3-3.3c-.911.911 0 2.65-.683 3.983z" style="stroke:var(--color1, #00b068)"/>
      <path fill="none" stroke="#00b068" stroke-linecap="round" stroke-linejoin="round" stroke-width="1.333" d="M13.333 18.666c-.328-.328-.491-.491-.584-.663a1.332 1.332 0 0 1 .025-1.311c.099-.168.269-.325.609-.64l6.579-6.091a1.47 1.47 0 0 1 2.077 2.077l-6.091 6.579c-.315.34-.472.51-.64.609-.403.238-.9.247-1.311.025-.172-.093-.335-.256-.663-.584z" style="stroke:var(--color1, #00b068)"/>
    </symbol>
    <symbol id="icon-benefits-icon-1" viewBox="0 0 32 32">
      <path fill="#bcdfd1" d="M5.333 0h21.333a5.333 5.333 0 0 1 5.333 5.333v21.333a5.333 5.333 0 0 1-5.333 5.333H5.333A5.333 5.333 0 0 1 0 26.666V5.333A5.333 5.333 0 0 1 5.333 0z" style="fill:var(--color2, #bcdfd1)"/>
      <path fill="none" stroke="#00b068" stroke-linecap="round" stroke-linejoin="round" stroke-width="1.333" d="M12.063 15.486a5.398 5.398 0 0 1-.063-.819c0-2.946 2.403-5.333 5.368-5.333s5.368 2.388 5.368 5.333c0 .665-.123 1.302-.347 1.89-.047.122-.07.183-.08.231s-.015.08-.016.129c-.001.049.005.102.019.21l.268 2.18c.029.236.044.354.004.44a.334.334 0 0 1-.171.168c-.087.037-.204.02-.44-.014l-2.123-.311c-.111-.016-.166-.024-.217-.024s-.084.004-.133.014-.113.034-.239.081a5.379 5.379 0 0 1-2.714.279m-3.459 2.727c1.977 0 3.579-1.642 3.579-3.667s-1.602-3.667-3.579-3.667S9.509 16.975 9.509 19c0 .407.065.799.184 1.164.051.155.076.232.084.285.009.055.01.086.007.142a1.563 1.563 0 0 1-.043.234l-.408 1.841 1.997-.273c.109-.015.163-.022.211-.022.05 0 .077.003.126.013.047.009.116.034.255.083a3.5 3.5 0 0 0 1.166.199z" style="stroke:var(--color1, #00b068)"/>
    </symbol>
    <symbol id="icon-benefits-icon" viewBox="0 0 32 32">
      <path fill="#bcdfd1" d="M5.333 0h21.333a5.333 5.333 0 0 1 5.333 5.333v21.333a5.333 5.333 0 0 1-5.333 5.333H5.333A5.333 5.333 0 0 1 0 26.666V5.333A5.333 5.333 0 0 1 5.333 0z" style="fill:var(--color2, #bcdfd1)"/>
      <path fill="none" stroke="#00b068" stroke-linecap="round" stroke-linejoin="round" stroke-width="1.333" d="M21.333 22c0-.93 0-1.396-.115-1.774a2.67 2.67 0 0 0-1.778-1.778c-.379-.115-.844-.115-1.774-.115h-3.333c-.93 0-1.396 0-1.774.115a2.67 2.67 0 0 0-1.778 1.778c-.115.379-.115.844-.115 1.774M16 16a3 3 0 1 0 0-6 3 3 0 0 0 0 6z" style="stroke:var(--color1, #00b068)"/>
    </symbol>
    <symbol id="icon-projects-icon" viewBox="0 0 32 32">
      <path fill="none" stroke="#00b068" stroke-linecap="round" stroke-linejoin="round" stroke-width="2.667" d="M6.333 25.667 25.666 6.334m.001-.001h-18m18 0v18" style="stroke:var(--color1, #00b068)"/>
    </symbol>
    <symbol id="icon-hero-icon" viewBox="0 0 32 32">
      <path fill="#00b068" d="M1.067 14.933a1.067 1.067 0 0 0 0 2.134v-2.133zm30.621 1.821a1.065 1.065 0 0 0 0-1.508L24.9 8.458a1.065 1.065 0 1 0-1.508 1.508L29.426 16l-6.034 6.034a1.065 1.065 0 1 0 1.508 1.508l6.788-6.788zm-30.621.313h29.867v-2.133H1.067v2.133z" style="fill:var(--color1, #00b068)"/>
    </symbol>
    <symbol id="icon-tech-skills" viewBox="0 0 32 32">
      <path d="M18.667 10.667h-5.333a2.667 2.667 0 0 0-2.667 2.667v5.333a2.667 2.667 0 0 0 2.667 2.667h5.333a2.667 2.667 0 0 0 2.667-2.667v-5.333a2.667 2.667 0 0 0-2.667-2.667z"/>
    </symbol>
    <symbol id="icon-arrow-left2" viewBox="0 0 32 32">
      <path d="M12.586 27.414l-10-10c-0.781-0.781-0.781-2.047 0-2.828l10-10c0.781-0.781 2.047-0.781 2.828 0s0.781 2.047 0 2.828l-6.586 6.586h19.172c1.105 0 2 0.895 2 2s-0.895 2-2 2h-19.172l6.586 6.586c0.39 0.39 0.586 0.902 0.586 1.414s-0.195 1.024-0.586 1.414c-0.781 0.781-2.047 0.781-2.828 0z"></path>
    </symbol>
    <symbol id="icon-arrow-right2" viewBox="0 0 32 32">
      <path d="M19.414 27.414l10-10c0.781-0.781 0.781-2.047 0-2.828l-10-10c-0.781-0.781-2.047-0.781-2.828 0s-0.781 2.047 0 2.828l6.586 6.586h-19.172c-1.105 0-2 0.895-2 2s0.895 2 2 2h19.172l-6.586 6.586c-0.39 0.39-0.586 0.902-0.586 1.414s0.195 1.024 0.586 1.414c0.781 0.781 2.047 0.781 2.828 0z"></path>
    </symbol>
   <symbol id="icon-closing" viewBox="0 0 32 32">
      <path d="M7.564 6.751c-0.348 0.107-0.711 0.477-0.816 0.836-0.103 0.344-0.103 0.483 0.004 0.844 0.081 0.28 0.201 0.407 3.719 3.929l3.633 3.64-3.633 3.64c-3.517 3.523-3.637 3.649-3.719 3.929-0.107 0.361-0.107 0.5-0.004 0.844 0.111 0.372 0.467 0.728 0.839 0.839 0.344 0.103 0.483 0.103 0.844-0.004 0.28-0.081 0.407-0.201 3.929-3.719l3.64-3.633 3.64 3.633c3.523 3.517 3.649 3.637 3.929 3.719 0.361 0.107 0.5 0.107 0.844 0.004 0.372-0.111 0.728-0.467 0.839-0.839 0.103-0.344 0.103-0.483-0.004-0.844-0.081-0.28-0.201-0.407-3.719-3.929l-3.633-3.64 3.633-3.64c3.517-3.523 3.637-3.649 3.719-3.929 0.107-0.361 0.107-0.5 0.004-0.844-0.137-0.396-0.443-0.702-0.829-0.836l-0.009-0.003c-0.344-0.103-0.483-0.103-0.844 0.004-0.28 0.081-0.407 0.201-3.929 3.719l-3.64 3.633-3.64-3.633c-3.523-3.517-3.649-3.637-3.929-3.719-0.349-0.103-0.537-0.103-0.867-0.001z"/>
    </symbol>
    <symbol id="icon-external-link" viewBox="0 0 32 32">
      <path d="M22 14.5v5c0 2.484-2.016 4.5-4.5 4.5h-13c-2.484 0-4.5-2.016-4.5-4.5v-13c0-2.484 2.016-4.5 4.5-4.5h11c0.281 0 0.5 0.219 0.5 0.5v1c0 0.281-0.219 0.5-0.5 0.5h-11c-1.375 0-2.5 1.125-2.5 2.5v13c0 1.375 1.125 2.5 2.5 2.5h13c1.375 0 2.5-1.125 2.5-2.5v-5c0-0.281 0.219-0.5 0.5-0.5h1c0.281 0 0.5 0.219 0.5 0.5zM28 1v8c0 0.547-0.453 1-1 1-0.266 0-0.516-0.109-0.703-0.297l-2.75-2.75-10.187 10.187c-0.094 0.094-0.234 0.156-0.359 0.156s-0.266-0.063-0.359-0.156l-1.781-1.781c-0.094-0.094-0.156-0.234-0.156-0.359s0.063-0.266 0.156-0.359l10.187-10.187-2.75-2.75c-0.187-0.187-0.297-0.438-0.297-0.703 0-0.547 0.453-1 1-1h8c0.547 0 1 0.453 1 1z"></path>
    </symbol>
    <symbol id="icon-telegram" viewBox="0 0 32 32">
      <path d="M18.578 20.422l2.297-10.828c0.203-0.953-0.344-1.328-0.969-1.094l-13.5 5.203c-0.922 0.359-0.906 0.875-0.156 1.109l3.453 1.078 8.016-5.047c0.375-0.25 0.719-0.109 0.438 0.141l-6.484 5.859-0.25 3.563c0.359 0 0.516-0.156 0.703-0.344l1.687-1.625 3.5 2.578c0.641 0.359 1.094 0.172 1.266-0.594zM28 14c0 7.734-6.266 14-14 14s-14-6.266-14-14 6.266-14 14-14 14 6.266 14 14z" style="stroke:var(--color1, #00b068)"></path>
    </symbol>
    <symbol id="icon-linkedin2" viewBox="0 0 32 32">
      <path d="M12 12h5.535v2.837h0.079c0.77-1.381 2.655-2.837 5.464-2.837 5.842 0 6.922 3.637 6.922 8.367v9.633h-5.769v-8.54c0-2.037-0.042-4.657-3.001-4.657-3.005 0-3.463 2.218-3.463 4.509v8.688h-5.767v-18z"></path>
      <path d="M2 12h6v18h-6v-18z"></path>
      <path d="M8 7c0 1.657-1.343 3-3 3s-3-1.343-3-3c0-1.657 1.343-3 3-3s3 1.343 3 3z" style="stroke:var(--color1, #00b068)"></path>
    </symbol>
    <symbol id="icon-logo" viewBox="0 0 32 32">
      <path fill="#00b869" style="fill: var(--color1, #00b869)" d="M7.838 8.445c0.85-0.025 1.704 0.008 2.555 0.009 1.518 0 3.038-0.014 4.556 0.004 0.006 0.079 0.015 0.162 0.007 0.241-0.009 0.087-0.055 0.15-0.134 0.188-0.1 0.047-0.224 0.053-0.333 0.065-0.379 0.041-0.793 0.075-1.098 0.33-0.226 0.19-0.341 0.484-0.366 0.772-0.061 0.69-0.027 1.407-0.024 2.1q0.011 1.712-0.004 3.424l-0.048 3.86c-0.021 0.944-0.1 1.903-0.017 2.845 0.027 0.304 0.103 0.652 0.309 0.889 0.387 0.444 1.139 0.423 1.679 0.459l0.001 0.377c-0.144-0.008-0.289-0.009-0.433-0.012l-5.059 0.005q-0.533 0.002-1.065 0.021c-0.295 0.010-0.619 0.040-0.911-0.005-0.007-0.103-0.004-0.206-0.003-0.309 0.514-0.025 1.203-0.007 1.603-0.388 0.233-0.222 0.324-0.541 0.37-0.85 0.089-0.608 0.078-1.223 0.082-1.836l0.026-2.139q0.058-3.536 0.161-7.072c0.013-0.65 0.13-1.625-0.365-2.131-0.437-0.448-1.166-0.418-1.744-0.421q0.009-0.105 0.029-0.209t0.051-0.205l0.174-0.011z"></path>
      <path fill="#00b869" style="fill: var(--color1, #00b869)" d="M15.728 8.459c0.363-0.032 0.734-0.015 1.099-0.012l1.669 0.006 4.445-0.045c-0.067 0.161-0.14 0.321-0.226 0.473-0.46 0.105-0.996 0.047-1.357 0.417-0.208 0.213-0.248 0.535-0.278 0.818-0.063 0.581-0.053 1.176-0.045 1.76l0.035 1.928 0.106 5.512c0.023 1.008 0.077 2.016 0.072 3.024q-0.072 0.063-0.146 0.123c0.061 0.473 0.152 0.935 0.197 1.411 0.148-0.306 0.249-0.623 0.354-0.946 0.251-0.771 0.488-1.612 0.971-2.276 0.373-0.513 0.776-0.757 1.397-0.857 0.17-0.183 0.321-0.38 0.475-0.577-0.029-0.080-0.048-0.162-0.052-0.247-0.011-0.221 0.072-0.426 0.224-0.585 0.205-0.215 0.481-0.346 0.779-0.353 0.348-0.008 0.578 0.187 0.838 0.387 0.082 0.063 0.176 0.121 0.249 0.195 0.068 0.069 0.035 0.133 0.033 0.219 0.062 0.050 0.18 0.064 0.257 0.083l-0.132 0.078c0.038 0.086 0.083 0.164 0.132 0.244l0.174 0.036c-0.149 0.147-0.331 0.252-0.518 0.342-0.074-0.049-0.147-0.1-0.22-0.15-0.075 0.144-0.122 0.301-0.202 0.442-0.148 0.264-0.531 0.592-0.796 0.742-0.173-0.132-0.324-0.299-0.46-0.468l-0.144 0.133c0.133 0.158 0.22 0.317 0.289 0.512l-0.258 0.083c0.149 0.501 0.416 0.985 0.644 1.455q0.764 0.22 1.522 0.459c0.328-0.084 0.659-0.13 0.994-0.055 0.148 0.135 0.254 0.289 0.338 0.47-0.178 0.037-0.333 0.079-0.497 0.16 0.36 0.048 0.72-0.012 1.081-0.012 0.547 0 1.111 0.090 1.654-0.002-0.102-0.442-0.254-0.881-0.375-1.32l-0.042 0.063c-0.186 0.276-0.308 0.59-0.482 0.873q-0.318 0.026-0.636 0.002c0.205-0.555 0.52-1.063 0.779-1.593 0.239-0.488 0.436-1.004 0.7-1.479 0.051-0.091 0.131-0.248 0.226-0.297 0.024-0.002 0.040-0.008 0.062 0.004 0.055 0.029 0.074 0.088 0.092 0.144 0.081 0.204 0.060 0.446 0.011 0.654-0.146 0.546-0.539 0.934-0.668 1.527 0.040 0.022 0.073 0.040 0.102 0.076 0.23 0.283 0.447 1.453 0.489 1.84q0.031 0.278 0.010 0.556c-0.373-0.032-0.755-0.023-1.13-0.029-0.474-0.008-0.971-0.049-1.44 0.037-0.011 0.804 0.001 1.608-0.004 2.412-0.003 0.513-0.052 1.051 0.013 1.56 0.014 0.111 0.059 0.231 0.118 0.326 0.295 0.477 0.968 0.418 1.441 0.536 0.098 0.024 0.172 0.055 0.224 0.144-0.004 0.043-0.012 0.063-0.042 0.094-0.101 0.108-0.285 0.189-0.42 0.245-0.758 0.313-1.284 0.23-2.054 0.277-0.321 0.020-0.64 0.073-0.962 0.078-0.037-0.244-0.043-0.485-0.049-0.731-0.133-0.014-0.251-0.046-0.374-0.098-0.187-0.252-0.287-0.586-0.379-0.883-0.18-0.582-0.403-1.544-0.832-1.974-0.216-0.216-0.494-0.29-0.791-0.291 0.107 0.070 0.333 0.122 0.396 0.236 0.021 0.037 0.009 0.055-0.005 0.091-0.218 0.21-1.061 0.202-1.373 0.207-0.077 0.534-0.072 1.137-0.016 1.672 0.602 0.261 1.218 0.387 1.764 0.777-0.027 0.167 0.028 0.339-0.005 0.5-0.012 0.058-0.036 0.102-0.089 0.132-0.101 0.058-0.262-0.002-0.365-0.030-0.026-0.068-0.050-0.136-0.055-0.209s0.001-0.176 0.059-0.229c0.075-0.069 0.152-0.040 0.242-0.038-0.002-0.017 0-0.015-0.012-0.030-0.166-0.205-1.216-0.507-1.512-0.553 0.073 0.202 0.161 0.41 0.207 0.62-0.002 0.004-0.005 0.008-0.007 0.012-0.082 0.139-0.18 0.229-0.342 0.266-0.102 0.024-0.221 0.020-0.311-0.039-0.071-0.047-0.113-0.122-0.127-0.205-0.045-0.252 0.143-0.485 0.281-0.676-0.598 0.076-1.153 0.292-1.711 0.513q0.049 0.087 0.085 0.18c0.038 0.097 0.075 0.235 0.027 0.334-0.022 0.045-0.062 0.076-0.11 0.089-0.082 0.022-0.178 0.002-0.251-0.039-0.096-0.054-0.172-0.149-0.196-0.257-0.021-0.094 0.003-0.186 0.056-0.264 0.060-0.088 0.149-0.154 0.241-0.204 0.188-0.102 0.399-0.16 0.6-0.232 0.423-0.153 0.837-0.322 1.28-0.409-0.014-0.575 0.066-1.088-0.147-1.642-0.391-0.065-1.232-0.022-1.522-0.189-0.159-0.092-0.218-0.212-0.263-0.381 0.058-0.162 0.161-0.222 0.302-0.308-0.17-0.289-0.276-0.612-0.396-0.924l-0.486-1.255c-0.228-0.585-0.508-1.154-0.696-1.754-0.048-0.152-0.159-0.484-0.063-0.63 0.025-0.038 0.067-0.057 0.11-0.068 0.131-0.034 0.281-0.008 0.412 0.019 0.33 0.069 0.631 0.293 0.799 0.587 0.073 0.128 0.14 0.391 0.267 0.465 0.041-0.002 0.040-0.001 0.069-0.030 0.023-0.182-0.238-0.616-0.351-0.761-0.204-0.261-0.522-0.498-0.861-0.534-0.303-0.032-0.498 0.118-0.718 0.294 0.1 0.458 0.211 0.914 0.374 1.354 0.177 0.478 0.399 0.924 0.531 1.42-0.983-0.086-2.030-0.050-3.018-0.027-0.518 0.012-1.073 0.065-1.588-0.009-0.008-0.112-0.009-0.224-0.013-0.336 0.586-0.049 1.328 0.006 1.8-0.408 0.326-0.286 0.409-0.746 0.438-1.157 0.055-0.781 0.011-1.566 0.009-2.348l-0.002-4.202 0.004-3.191c0.006-0.727 0.056-1.466-0.018-2.191-0.030-0.292-0.101-0.6-0.3-0.825-0.399-0.452-1.128-0.429-1.681-0.467l-0.025-0.396zM23.798 23.355c-0.010 0.246 0.042 0.495 0.062 0.74 0.181 0.045 0.364 0.088 0.542 0.146 0.639 0.196 1.399 0.448 1.846 0.973 0.562 0.42 0.749 1.257 1.11 1.834 0.054-0.402-0.008-0.837-0.019-1.243-0.012-0.464 0.008-0.93 0.032-1.393-0.568-0.058-1.146-0.016-1.715 0.003-0.016-0.183-0.006-0.365 0.004-0.547 0.355-0.172 0.483-0.047 0.795-0.115l0.005-0.024c-0.007-0.012-0.025-0.054-0.034-0.061-0.045-0.031-0.354-0.004-0.436-0.011-0.212-0.018-0.408-0.093-0.618-0.113-0.345-0.033-0.695-0.008-1.037-0.053-0.186-0.025-0.359-0.079-0.536-0.136zM23.329 20.2c-0.432 0.344-0.757 0.764-0.892 1.305 0.207-0.155 0.662-0.569 0.908-0.574 0.022 0.013 0.035 0.013 0.041 0.040 0.026 0.115-0.088 0.263-0.152 0.352q-0.043 0.059-0.087 0.118c0.071 0.115 0.136 0.231 0.199 0.351 0.326-0.050 0.655-0.109 0.985-0.103l-0.374 0.136c-0.156 0.055-0.311 0.108-0.463 0.172 0.079 0.228 0.193 0.446 0.303 0.661 0.305-0.118 0.605-0.259 0.92-0.349-0.226-0.618-0.438-1.745-1.080-2.043-0.101-0.047-0.198-0.066-0.308-0.065zM24.811 22.375c-0.231 0.147-0.443 0.302-0.653 0.479 0.040 0.081 0.085 0.155 0.135 0.23 0.094-0.051 0.185-0.102 0.295-0.069 0.060 0.018 0.116 0.061 0.165 0.098 0.109-0.097 0.217-0.2 0.332-0.289-0.062 0.084-0.123 0.171-0.189 0.252l0.181 0.165c0.217-0.011 0.428-0.017 0.645-0.001q0.456 0.040 0.91 0.103c0.032-0.145 0.091-0.283 0.12-0.429-0.29-0.074-0.581-0.149-0.867-0.235-0.327-0.098-0.737-0.306-1.075-0.304zM23.897 24.351c0.878 0.203 1.775 0.477 2.284 1.283 0.197 0.312 0.326 0.667 0.485 1 0.147 0.307 0.331 0.595 0.497 0.893 0.249 0.447 0.439 0.923 0.798 1.298-0.18-0.671-0.538-1.152-0.846-1.758-0.324-0.639-0.573-1.336-1.019-1.903-0.503-0.465-1.118-0.658-1.756-0.857-0.159-0.038-0.32-0.084-0.484-0.097l0.039 0.142zM20.114 21.413c0.022 0.382 0.377 1.127 0.523 1.519 0.12 0.324 0.219 0.662 0.363 0.976 0.050 0.108 0.099 0.206 0.186 0.288 0.033-0.807-0.163-1.935-0.723-2.536-0.085-0.091-0.227-0.22-0.349-0.247zM21.23 24.75c0.051 0.362 0.18 0.677 0.312 1.015 0.38 0.044 0.773 0.11 1.155 0.111l-0.019-0.014c-0.289-0.204-0.693-0.21-0.958-0.439-0.213-0.184-0.219-0.548-0.49-0.673zM24.563 21.077c-0.001 0.361 0.115 0.703 0.202 1.049q0.144 0.061 0.29 0.119c-0.047-0.406-0.169-0.891-0.492-1.168zM26.864 23.614c-0.042 0.006-0.088 0.001-0.112 0.041-0.011 0.018-0.015 0.048-0.020 0.069 0.018 0.038 0.028 0.048 0.069 0.061 0.198 0.066 0.749-0.002 0.96-0.034l0.026-0.013c-0.009-0.035-0.029-0.056-0.059-0.075-0.086-0.056-0.372-0.078-0.47-0.046-0.053 0.017-0.050 0.090-0.091 0.084-0.006-0.001-0.026-0.013-0.030-0.015-0.102-0.056-0.157-0.075-0.274-0.072zM27.777 29.215c0.261 0.256 0.625 0.24 0.964 0.294 0.142 0.023 0.299 0.074 0.442 0.070 0.007-0 0.015-0.001 0.022-0.001-0.078-0.074-0.154-0.13-0.257-0.163q-0.076-0.024-0.155-0.033c-0.164-0.019-0.334-0.011-0.497-0.040-0.175-0.031-0.342-0.108-0.52-0.127zM22.792 28.916c-0.062 0.11-0.179 0.301-0.137 0.432 0.011 0.035 0.033 0.062 0.068 0.073 0.044 0.015 0.127 0.003 0.17-0.010 0.066-0.061 0.161-0.135 0.169-0.232 0.005-0.060-0.031-0.11-0.073-0.148-0.055-0.050-0.132-0.081-0.197-0.116zM28.82 23.646c-0.106 0.010-0.2 0.024-0.302 0.055 0.305 0.101 0.637 0.058 0.953 0.046 0.104-0.010 0.209-0.018 0.313-0.036-0.314-0.067-0.643-0.084-0.963-0.065zM24.025 19.873c0.136 0.264 0.233 0.492 0.511 0.636-0.117-0.282-0.247-0.473-0.511-0.636zM23.309 24.003c-0.029 0.051-0.054 0.087-0.050 0.147 0.024 0.041 0.040 0.060 0.088 0.072 0.095 0.023 0.224 0.003 0.322-0.004 0.033-0.037 0.039-0.034 0.037-0.083-0.077-0.1-0.249-0.113-0.367-0.128l-0.031-0.004zM22.635 24.131c-0.139 0.016-0.255 0.052-0.382 0.108 0.143 0.026 0.271 0.027 0.415 0.013l0.424-0.039c-0.155-0.044-0.296-0.079-0.457-0.083zM24.32 20.61c0.037 0.11 0.072 0.272 0.156 0.353l0.020-0.002c0.018-0.079 0.044-0.18-0.008-0.252-0.041-0.057-0.103-0.080-0.168-0.099zM26.894 22.877c0.040 0.062 0.066 0.117 0.143 0.135 0.034 0.008 0.075 0.005 0.11 0.004-0.016-0.053-0.024-0.096-0.070-0.131-0.059-0.021-0.122-0.012-0.183-0.009z"></path>
      <path fill="#fefefe" style="fill: var(--color2, #fefefe)" d="M26.252 23.429c0.112-0.008 0.293-0.026 0.396 0.023 0.032 0.015 0.032 0.026 0.044 0.058-0.103 0.006-0.287 0.033-0.381-0.014-0.039-0.020-0.044-0.029-0.059-0.067z"></path>
      <path fill="#fefefe" style="fill: var(--color2, #fefefe)" d="M30.601 19.765c0.122 0.181 0.16 0.412 0.114 0.626-0.001 0.006-0.003 0.012-0.005 0.018-0.041-0.056-0.067-0.107-0.085-0.174-0.030-0.108-0.081-0.375-0.024-0.47z"></path>
    </symbol>
  </defs>
</svg>
